<svg width="46" height="46" viewBox="0 0 46 46" fill="none" xmlns="http://www.w3.org/2000/svg">
<path d="M42.6858 18.4464C42.183 16.2538 41.3302 14.1915 40.1431 12.295L41.8487 9.44968L36.5502 4.15123L33.7049 5.85682C31.8085 4.66972 29.7461 3.81692 27.5536 3.31416L26.7468 0H19.2532L18.4464 3.31425C16.2539 3.81701 14.1916 4.66981 12.2951 5.85691L9.44977 4.15132L4.15123 9.44977L5.85682 12.2951C4.66972 14.1915 3.81692 16.2539 3.31416 18.4464L0 19.2532V26.7468L3.31425 27.5536C3.81701 29.7461 4.66981 31.8084 5.85691 33.7049L4.15132 36.5502L9.44986 41.8488L12.2952 40.1432C14.1916 41.3303 16.254 42.1831 18.4465 42.6858L19.2532 46H26.7468L27.5536 42.6858C29.7461 42.183 31.8084 41.3302 33.7049 40.1431L36.5502 41.8487L41.8488 36.5501L40.1432 33.7048C41.3303 31.8084 42.1831 29.746 42.6858 27.5535L46 26.7468V19.2532L42.6858 18.4464ZM23 37.8242C14.8259 37.8242 8.17578 31.1741 8.17578 23C8.17578 14.8259 14.8259 8.17578 23 8.17578C31.1741 8.17578 37.8242 14.8259 37.8242 23C37.8242 31.1741 31.1741 37.8242 23 37.8242Z" fill="url(#paint0_linear)"/>
<path d="M23 13.5664C17.7989 13.5664 13.5664 17.7989 13.5664 23C13.5664 28.2011 17.7989 32.4336 23 32.4336C28.2011 32.4336 32.4336 28.2011 32.4336 23C32.4336 17.7989 28.2011 13.5664 23 13.5664ZM21.6523 26.9272L18.0042 23.2791L19.9099 21.3734L21.6523 23.1158L26.0902 18.678L27.9959 20.5837L21.6523 26.9272Z" fill="#2E68FF"/>
<defs>
<linearGradient id="paint0_linear" x1="2.17039e-08" y1="-6.5" x2="32" y2="50.5" gradientUnits="userSpaceOnUse">
<stop stop-color="#2ED1DB"/>
<stop offset="1" stop-color="#2ED1DB" stop-opacity="0.43"/>
</linearGradient>
</defs>
</svg>
