<svg width="44" height="45" viewBox="0 0 44 45" fill="none" xmlns="http://www.w3.org/2000/svg">
<path d="M21.559 21.173C23.685 21.173 25.454 19.449 25.454 17.323V3.849C25.454 1.724 23.685 0 21.559 0C19.433 0 17.664 1.724 17.664 3.849V17.324C17.665 19.449 19.433 21.173 21.559 21.173Z" fill="#2E68FF"/>
<path d="M29.882 3.33001C29.401 3.13001 28.852 3.18301 28.416 3.47201C27.982 3.76101 27.721 4.24801 27.721 4.77001V9.88301C27.721 10.443 28.022 10.959 28.505 11.237C32.697 13.644 35.423 18.121 35.423 23.236C35.423 30.89 29.206 37.118 21.553 37.118C13.899 37.118 7.693 30.89 7.693 23.236C7.693 18.123 10.506 13.647 14.624 11.239C15.102 10.96 15.397 10.445 15.397 9.89101V4.76901C15.397 4.24801 15.136 3.76001 14.702 3.47101C14.267 3.18101 13.718 3.12901 13.236 3.32901C5.412 6.59301 0 14.276 0 23.236C0 35.156 9.653 44.816 21.572 44.816C33.489 44.816 43.127 35.156 43.127 23.236C43.126 14.276 37.709 6.59301 29.882 3.33001Z" fill="url(#paint0_linear)"/>
<defs>
<linearGradient id="paint0_linear" x1="21.5635" y1="3.20908" x2="21.5635" y2="44.816" gradientUnits="userSpaceOnUse">
<stop stop-color="#2ED1DB"/>
<stop offset="1" stop-color="#2ED1DB" stop-opacity="0.53"/>
</linearGradient>
</defs>
</svg>
