<svg width="39" height="39" viewBox="0 0 39 39" fill="none" xmlns="http://www.w3.org/2000/svg">
<path d="M21.1737 2.7495L3.315 0.0357531C2.48625 -0.0942468 1.64125 0.133253 1.0075 0.669503C0.37375 1.222 0 2.01825 0 2.847V37.0858C0 37.9795 0.73125 38.7108 1.625 38.7108H6.90625V30.1795C6.90625 28.6033 8.17375 27.3358 9.75 27.3358H13.8125C15.3888 27.3358 16.6562 28.6033 16.6562 30.1795V38.7108H23.5625V5.56075C23.5625 4.16325 22.555 2.977 21.1737 2.7495ZM8.9375 23.6795H6.5C5.82725 23.6795 5.28125 23.1335 5.28125 22.4608C5.28125 21.788 5.82725 21.242 6.5 21.242H8.9375C9.61025 21.242 10.1562 21.788 10.1562 22.4608C10.1562 23.1335 9.61025 23.6795 8.9375 23.6795ZM8.9375 18.8045H6.5C5.82725 18.8045 5.28125 18.2585 5.28125 17.5858C5.28125 16.913 5.82725 16.367 6.5 16.367H8.9375C9.61025 16.367 10.1562 16.913 10.1562 17.5858C10.1562 18.2585 9.61025 18.8045 8.9375 18.8045ZM8.9375 13.9295H6.5C5.82725 13.9295 5.28125 13.3835 5.28125 12.7108C5.28125 12.038 5.82725 11.492 6.5 11.492H8.9375C9.61025 11.492 10.1562 12.038 10.1562 12.7108C10.1562 13.3835 9.61025 13.9295 8.9375 13.9295ZM8.9375 9.0545H6.5C5.82725 9.0545 5.28125 8.5085 5.28125 7.83575C5.28125 7.163 5.82725 6.617 6.5 6.617H8.9375C9.61025 6.617 10.1562 7.163 10.1562 7.83575C10.1562 8.5085 9.61025 9.0545 8.9375 9.0545ZM17.0625 23.6795H14.625C13.9522 23.6795 13.4062 23.1335 13.4062 22.4608C13.4062 21.788 13.9522 21.242 14.625 21.242H17.0625C17.7353 21.242 18.2812 21.788 18.2812 22.4608C18.2812 23.1335 17.7353 23.6795 17.0625 23.6795ZM17.0625 18.8045H14.625C13.9522 18.8045 13.4062 18.2585 13.4062 17.5858C13.4062 16.913 13.9522 16.367 14.625 16.367H17.0625C17.7353 16.367 18.2812 16.913 18.2812 17.5858C18.2812 18.2585 17.7353 18.8045 17.0625 18.8045ZM17.0625 13.9295H14.625C13.9522 13.9295 13.4062 13.3835 13.4062 12.7108C13.4062 12.038 13.9522 11.492 14.625 11.492H17.0625C17.7353 11.492 18.2812 12.038 18.2812 12.7108C18.2812 13.3835 17.7353 13.9295 17.0625 13.9295ZM17.0625 9.0545H14.625C13.9522 9.0545 13.4062 8.5085 13.4062 7.83575C13.4062 7.163 13.9522 6.617 14.625 6.617H17.0625C17.7353 6.617 18.2812 7.163 18.2812 7.83575C18.2812 8.5085 17.7353 9.0545 17.0625 9.0545Z" fill="url(#paint0_linear)"/>
<path d="M36.7575 17.3289L25.1875 14.906V38.7106H36.1563C37.7244 38.7106 39 37.435 39 35.8669V20.1076C39 18.7654 38.0851 17.623 36.7575 17.3289ZM32.9063 33.8356H30.4688C29.796 33.8356 29.25 33.2896 29.25 32.6169C29.25 31.9441 29.796 31.3981 30.4688 31.3981H32.9063C33.579 31.3981 34.125 31.9441 34.125 32.6169C34.125 33.2896 33.579 33.8356 32.9063 33.8356ZM32.9063 28.9606H30.4688C29.796 28.9606 29.25 28.4146 29.25 27.7419C29.25 27.0691 29.796 26.5231 30.4688 26.5231H32.9063C33.579 26.5231 34.125 27.0691 34.125 27.7419C34.125 28.4146 33.579 28.9606 32.9063 28.9606ZM32.9063 24.0856H30.4688C29.796 24.0856 29.25 23.5396 29.25 22.8669C29.25 22.1941 29.796 21.6481 30.4688 21.6481H32.9063C33.579 21.6481 34.125 22.1941 34.125 22.8669C34.125 23.5396 33.579 24.0856 32.9063 24.0856Z" fill="#2EC0FF"/>
<defs>
<linearGradient id="paint0_linear" x1="0" y1="0" x2="20.5" y2="39" gradientUnits="userSpaceOnUse">
<stop stop-color="#2E68FF"/>
<stop offset="1" stop-color="#2E68FF" stop-opacity="0.4"/>
</linearGradient>
</defs>
</svg>
