<svg width="30" height="40" viewBox="0 0 30 40" fill="none" xmlns="http://www.w3.org/2000/svg">
<path d="M3.59262 38.071C3.63776 39.1491 4.52495 40 5.60387 40H24.3964C25.4753 40 26.3625 39.1491 26.4077 38.071L27.7497 9.74023H2.25058L3.59262 38.071ZM19.2512 16.7771C19.2512 16.3257 19.6173 15.9595 20.0689 15.9595H21.3767C21.828 15.9595 22.1943 16.3256 22.1943 16.7771V32.9631C22.1943 33.4146 21.8283 33.7807 21.3767 33.7807H20.0689C19.6175 33.7807 19.2512 33.4148 19.2512 32.9631V16.7771ZM13.5287 16.7771C13.5287 16.3257 13.8947 15.9595 14.3463 15.9595H15.654C16.1054 15.9595 16.4716 16.3256 16.4716 16.7771V32.9631C16.4716 33.4146 16.1056 33.7807 15.654 33.7807H14.3463C13.8948 33.7807 13.5287 33.4148 13.5287 32.9631V16.7771ZM7.80596 16.7771C7.80596 16.3257 8.172 15.9595 8.62353 15.9595H9.93139C10.3828 15.9595 10.749 16.3256 10.749 16.7771V32.9631C10.749 33.4146 10.3829 33.7807 9.93139 33.7807H8.62353C8.1721 33.7807 7.80596 33.4148 7.80596 32.9631V16.7771Z" fill="url(#paint0_linear)"/>
<path d="M28.6432 2.0606H19.9736V0.42156C19.9736 0.188796 19.7849 0 19.552 0H10.448C10.2152 0 10.0265 0.188796 10.0265 0.42156V2.0605H1.35681C0.659105 2.0605 0.0935974 2.62611 0.0935974 3.32381V7.29235H29.9064V3.32391C29.9064 2.6262 29.3409 2.0606 28.6432 2.0606Z" fill="#F14F4F"/>
<defs>
<linearGradient id="paint0_linear" x1="6" y1="10" x2="22.5" y2="40" gradientUnits="userSpaceOnUse">
<stop stop-color="#FF918A"/>
<stop offset="1" stop-color="#FF918A" stop-opacity="0.54"/>
</linearGradient>
</defs>
</svg>
